# xmcd
#
# Track frame offsets:
#	150
#	17198
#	29898
#	45390
#	58132
#	74606
#	90698
#	106394
#	119841
#	133586
#	148750
#	167200
#	183919
#
# Disc length: 2586 seconds
#
# Revision: 1
# Processed by: cddbd v1.5.1PL0 Copyright (c) Steve Scherf et al.
# Submitted via: audiograbber 1.80
#
DISCID=c90a180d
DTITLE=Isarwinkler Spitzbuam - So soi's sei
DYEAR=1900
DGENRE=
TTITLE0=So soi's sei
TTITLE1=Beim Oberbräu
TTITLE2=Wie ein Traum
TTITLE3=G'hupft wia g'sprunga
TTITLE4=Maderl, tanz mit mir
TTITLE5=Lustige Floßfahrt
TTITLE6=Übern Rechelkopf
TTITLE7=Boarisch wia ma san
TTITLE8=Wüstenpolka
TTITLE9=Baritonzauber
TTITLE10=Trink ma no a Stamperl
TTITLE11=Anna
TTITLE12=Spitzbuam-Trompeten
EXTD=
EXTT0=
EXTT1=
EXTT2=
EXTT3=
EXTT4=
EXTT5=
EXTT6=
EXTT7=
EXTT8=
EXTT9=
EXTT10=
EXTT11=
EXTT12=
PLAYORDER=
